<svg id="Arkon_Lab" data-name="Arkon Lab" xmlns="http://www.w3.org/2000/svg" width="369px" height="52px" viewBox="0 0 368.63 51.12"><title>Arkon Lab</title><path id="red-a" d="M33.48,0H19.08L0,50.4H14l3.24-9h18l3.24,9h14ZM32,32H20.52L23,24.83a5.76,5.76,0,1,1,6.61,0Z" fill="#ff3d2e"/><path d="M77.4,22.68A22.83,22.83,0,0,0,68,24.84V50.4H55.44V12.24H66.6l.72,4.68q6.19-5.4,13-5.4h3.24V22.68Z" fill="#fff"/><path d="M101.16,35.28V50.4H88.56V0h12.6V25.56h5.76l7.92-13.32h13.32L117.36,30.6l10.8,19.8H114.84l-8.28-15.12Z" fill="#fff"/><path d="M169.92,39.6q0,5.4-3.06,8.46t-8.46,3.06H141.84q-5.4,0-8.46-3.06t-3.06-8.46V23q0-5.4,3.06-8.46t8.46-3.06H158.4q5.4,0,8.46,3.06T169.92,23Zm-12.6-15.48a2.55,2.55,0,0,0-2.88-2.88H145.8a2.55,2.55,0,0,0-2.88,2.88v14.4a2.55,2.55,0,0,0,2.88,2.88h8.64a2.55,2.55,0,0,0,2.88-2.88Z" fill="#fff"/><path d="M197.64,22A30.59,30.59,0,0,0,189,23.4v27H176.4V12.24h11.16l.72,3.6a25.78,25.78,0,0,1,6.95-3.28,22.11,22.11,0,0,1,6-1h3.24a10.61,10.61,0,0,1,7.85,3,10.61,10.61,0,0,1,3,7.85V50.4h-12.6V24.48A2.46,2.46,0,0,0,200.16,22Z" fill="#fff"/><path d="M257,40.32h26.28V50.4H244.08V0h13Z" fill="#fff"/><path d="M289.44,13a220.84,220.84,0,0,1,23.76-1.44,10.61,10.61,0,0,1,7.85,3,10.61,10.61,0,0,1,3,7.85V50.4H312.84l-.72-3.6a25.73,25.73,0,0,1-6.95,3.28,22.12,22.12,0,0,1-6,1h-2.52a10.15,10.15,0,0,1-10.8-10.8V37.08a10.15,10.15,0,0,1,10.8-10.8H311.4V23.4a2.46,2.46,0,0,0-2.52-2.52q-4.68,0-10.33.43t-9.11.65ZM302.76,41a30.57,30.57,0,0,0,8.64-1.44V35.28H301a2.46,2.46,0,0,0-2.52,2.52v.72A2.46,2.46,0,0,0,301,41Z" fill="#fff"/><path d="M343.07,13a61.65,61.65,0,0,1,12.24-1.44h2.52a10.61,10.61,0,0,1,7.85,3,10.61,10.61,0,0,1,3,7.85V38.88q0,5.4-3.06,8.46t-8.46,3.06H330.47V0h12.6Zm13,10.8a2.46,2.46,0,0,0-2.52-2.52h-1.8a40.91,40.91,0,0,0-5.22.29l-3.42.43V40.68h10.08A2.55,2.55,0,0,0,356,37.8Z" fill="#fff"/></svg>
