<?xml version="1.0" standalone="no"?>
<!DOCTYPE svg PUBLIC "-//W3C//DTD SVG 20010904//EN"
 "http://www.w3.org/TR/2001/REC-SVG-20010904/DTD/svg10.dtd">
<svg version="1.0" xmlns="http://www.w3.org/2000/svg"
 width="848.000000pt" height="848.000000pt" viewBox="0 0 848.000000 848.000000"
 preserveAspectRatio="xMidYMid meet">
<metadata>
Created by potrace 1.11, written by Peter Selinger 2001-2013
</metadata>
<g transform="translate(0.000000,848.000000) scale(0.100000,-0.100000)"
fill="#000000" stroke="none">
<path d="M3077 8293 c-3 -5 -57 -147 -122 -318 -117 -311 -242 -640 -740
-1955 -558 -1473 -659 -1741 -865 -2285 -117 -308 -254 -670 -305 -805 -51
-135 -220 -580 -375 -990 -155 -410 -359 -947 -452 -1195 -94 -247 -181 -478
-194 -512 l-24 -63 1129 0 1129 0 10 27 c10 27 71 197 365 1013 74 206 138
383 142 392 7 17 86 18 1459 18 l1452 0 154 -427 c85 -236 202 -561 261 -723
l106 -295 1127 -3 c664 -1 1126 2 1126 7 0 8 -211 571 -615 1641 -95 251 -197
522 -445 1180 -235 624 -350 929 -451 1195 -60 160 -432 1147 -827 2195 l-718
1905 -1162 3 c-638 1 -1163 -1 -1165 -5z m1319 -2324 c314 -55 601 -289 715
-583 139 -359 22 -792 -285 -1052 l-49 -42 192 -573 c105 -315 189 -574 187
-576 -1 -2 -417 -2 -923 -1 l-920 3 120 345 c65 190 154 448 198 574 44 127
76 233 72 236 -101 84 -134 116 -184 183 -256 340 -267 792 -26 1112 141 187
366 331 588 374 63 13 245 13 315 0z"/>
</g>
</svg>
